<?xml version="1.0" encoding="utf-8"?>
<!-- Generator: Adobe Illustrator 16.0.4, SVG Export Plug-In . SVG Version: 6.00 Build 0)  -->
<!DOCTYPE svg PUBLIC "-//W3C//DTD SVG 1.1//EN" "http://www.w3.org/Graphics/SVG/1.1/DTD/svg11.dtd">
<svg version="1.1" id="Layer_1" xmlns="http://www.w3.org/2000/svg" xmlns:xlink="http://www.w3.org/1999/xlink" x="0px" y="0px"
	 width="48.949px" height="38.22px" viewBox="0 0 48.949 38.22" enable-background="new 0 0 48.949 38.22" xml:space="preserve">
<g>
	<defs>
		
			<rect id="SVGID_1_" x="2.888" y="5.11" transform="matrix(-0.9659 -0.2588 0.2588 -0.9659 43.1693 43.9035)" width="43.173" height="27.999"/>
	</defs>
	<clipPath id="SVGID_2_">
		<use xlink:href="#SVGID_1_"  overflow="visible"/>
	</clipPath>
	<path clip-path="url(#SVGID_2_)" fill="#1F1815" d="M15.758,17.257c-0.962-0.304-1.884-0.539-2.766-0.711
		c-0.88-0.17-1.712-0.266-2.492-0.285c-0.781-0.019-1.529,0.044-2.247,0.188c-1.353,0.274-2.519,0.778-3.495,1.51
		s-1.684,1.611-2.12,2.642c-0.438,1.031-0.543,2.098-0.321,3.202c0.141,0.694,0.417,1.337,0.826,1.929
		c0.411,0.592,0.916,1.079,1.514,1.461c0.599,0.382,1.247,0.64,1.942,0.771c0.697,0.13,1.415,0.121,2.153-0.029
		c1.275-0.259,2.169-0.926,2.686-2.002c-0.443,0.09-0.825,0.034-1.144-0.167c-0.321-0.202-0.525-0.524-0.615-0.969
		c-0.097-0.478-0.018-0.899,0.234-1.265c0.251-0.365,0.604-0.594,1.06-0.686c0.456-0.093,0.871,0.008,1.251,0.297
		c0.378,0.291,0.62,0.691,0.723,1.204c0.122,0.603,0.021,1.206-0.308,1.813c-0.327,0.604-0.828,1.14-1.507,1.602
		c-0.673,0.463-1.438,0.781-2.292,0.954c-1.116,0.225-2.193,0.167-3.233-0.179c-1.043-0.348-1.926-0.932-2.65-1.756
		c-0.723-0.824-1.198-1.789-1.422-2.893c-0.228-1.125-0.163-2.209,0.196-3.247s0.987-1.991,1.89-2.861
		c0.901-0.87,2.048-1.631,3.438-2.278c1.392-0.649,2.968-1.154,4.732-1.512c2.071-0.419,4.542-0.619,7.414-0.597
		c1.259,0.017,2.35,0.052,3.274,0.108c0.924,0.055,2.036,0.132,3.341,0.23c1.306,0.094,2.367,0.172,3.186,0.231
		c2.305,0.149,4.177,0.255,5.617,0.317c1.441,0.064,2.696,0.079,3.768,0.046c1.07-0.034,2.068-0.145,2.989-0.33
		c0.888-0.181,1.754-0.417,2.603-0.707c0.847-0.29,1.656-0.61,2.424-0.962c0.772-0.353,1.525-0.762,2.258-1.23l0.232,0.271
		c-1.766,2.1-3.691,3.867-5.775,5.303c-2.084,1.437-4.282,2.496-6.598,3.179c0.487-0.822,0.833-1.633,1.038-2.433
		c-0.246,0.074-0.398,0.115-0.455,0.128c-0.068,0.015-0.219,0.032-0.45,0.056c-0.409,0.793-0.93,1.64-1.565,2.539
		c-0.795,0.161-1.646,0.287-2.555,0.376c-0.905,0.088-1.699,0.142-2.382,0.162c0.593-0.817,1.127-1.803,1.604-2.954
		c-0.154-0.004-0.428-0.044-0.822-0.118c-0.715,1.034-1.53,2.046-2.441,3.036c-1.91-0.193-3.598-0.501-5.058-0.928
		c0.71-0.654,1.407-1.453,2.091-2.396c-0.474-0.059-0.773-0.105-0.898-0.138c-0.772,0.865-1.562,1.595-2.364,2.185
		c-1.285-0.38-2.41-0.721-3.37-1.021c-0.622-0.206-1.351-0.461-2.183-0.767c0.231-0.261,0.417-0.464,0.552-0.61
		c0.137-0.146,0.325-0.355,0.565-0.629c-0.095-0.005-0.221-0.021-0.374-0.05c-0.153-0.026-0.294-0.058-0.42-0.091
		C16.65,16.572,16.225,16.925,15.758,17.257 M7.905,15.863c2.582-0.477,5.712-0.548,9.392-0.217
		c0.967,0.088,3.176,0.353,6.629,0.788c1.729,0.23,3.157,0.396,4.286,0.499c1.13,0.103,2.259,0.171,3.391,0.201
		c2.91,0.097,5.321-0.048,7.232-0.436c3.232-0.656,5.793-1.903,7.682-3.743c-1.808,0.898-3.582,1.525-5.321,1.879
		c-1.594,0.323-3.534,0.45-5.824,0.38c-1.008-0.007-2.049-0.047-3.123-0.112c-1.073-0.066-2.147-0.146-3.219-0.236
		c-1.074-0.091-1.929-0.168-2.562-0.234c-0.638-0.066-1.475-0.154-2.516-0.264c-2.257-0.206-4.549-0.276-6.875-0.214
		c-2.328,0.063-4.258,0.251-5.796,0.562c-0.681,0.139-1.258,0.288-1.729,0.449C9.079,15.325,8.531,15.559,7.905,15.863"/>
</g>
</svg>
